<?xml version="1.0" encoding="UTF-8" standalone="no"?>
<!-- Created with Inkscape (http://www.inkscape.org/) -->

<svg
   xmlns:dc="http://purl.org/dc/elements/1.1/"
   xmlns:cc="http://creativecommons.org/ns#"
   xmlns:rdf="http://www.w3.org/1999/02/22-rdf-syntax-ns#"
   xmlns:svg="http://www.w3.org/2000/svg"
   xmlns="http://www.w3.org/2000/svg"
   xmlns:sodipodi="http://sodipodi.sourceforge.net/DTD/sodipodi-0.dtd"
   xmlns:inkscape="http://www.inkscape.org/namespaces/inkscape"
   width="48.175335mm"
   height="48.175335mm"
   viewBox="0 0 48.175335 48.175335"
   version="1.1"
   id="svg61"
   inkscape:version="0.92.4 (5da689c313, 2019-01-14)"
   sodipodi:docname="logotipo-mejorado.svg">
  <defs
     id="defs55" />
  <sodipodi:namedview
     id="base"
     pagecolor="#ffffff"
     bordercolor="#666666"
     borderopacity="1.0"
     inkscape:pageopacity="0.0"
     inkscape:pageshadow="2"
     inkscape:zoom="2.1964504"
     inkscape:cx="13.092077"
     inkscape:cy="73.533865"
     inkscape:document-units="mm"
     inkscape:current-layer="layer2"
     showgrid="true"
     fit-margin-top="0"
     fit-margin-left="0"
     fit-margin-right="0"
     fit-margin-bottom="0"
     inkscape:window-width="1366"
     inkscape:window-height="745"
     inkscape:window-x="-8"
     inkscape:window-y="-8"
     inkscape:window-maximized="1">
    <inkscape:grid
       type="xygrid"
       id="grid93" />
  </sodipodi:namedview>
  <metadata
     id="metadata58">
    <rdf:RDF>
      <cc:Work
         rdf:about="">
        <dc:format>image/svg+xml</dc:format>
        <dc:type
           rdf:resource="http://purl.org/dc/dcmitype/StillImage" />
        <dc:title></dc:title>
      </cc:Work>
    </rdf:RDF>
  </metadata>
  <g
     inkscape:label="Capa 1"
     inkscape:groupmode="layer"
     id="layer1"
     transform="translate(-71.992821,-164.90697)" />
  <g
     inkscape:groupmode="layer"
     id="layer2"
     inkscape:label="fondo">
    <g
       id="g6068"
       transform="matrix(0.98926829,0,0,0.96822415,0.40469189,1.484249)">
      <g
         transform="matrix(0.97999648,0,0,0.97999648,-70.086744,-162.26704)"
         id="g74">
        <path
           inkscape:connector-curvature="0"
           id="path90"
           d="m 71.992821,188.99464 c 0,-24.08767 0,-24.08767 24.087668,-24.08767 24.087671,0 24.087671,0 24.087671,24.08767 0,24.08766 0,24.08766 -24.087671,24.08766 -24.087668,0 -24.087668,0 -24.087668,-24.08766 z"
           style="fill:#fefefe;stroke-width:0.08466667" />
        <path
           inkscape:connector-curvature="0"
           id="path88"
           d="m 77.680949,200.39062 c -1.755147,-0.60619 -2.230633,-3.30018 -1.010155,-5.72332 1.309692,-2.60025 4.491389,-5.15941 9.080361,-7.30367 1.488628,-0.69558 1.915907,-0.85653 2.435959,-0.91754 0.382531,-0.0449 0.464867,-0.0274 0.605732,0.12838 0.156775,0.17342 0.157586,0.19759 0.02117,0.63036 -0.07802,0.24751 -0.141857,0.4815 -0.141857,0.51997 0,0.0385 0.263068,-0.18402 0.584596,-0.49443 0.633491,-0.61158 1.311197,-0.98525 1.789297,-0.98657 0.483456,-0.001 1.017849,0.32282 1.241903,0.75332 0.154588,0.29703 0.194204,0.50951 0.194204,1.04162 0,2.49659 -1.585215,4.66589 -3.766288,5.15399 -0.256876,0.0575 -0.467045,0.12808 -0.467045,0.15687 0,0.0288 0.05881,0.13633 0.130698,0.23896 0.07188,0.10263 0.259028,0.53177 0.415877,0.95365 0.37853,1.01815 0.492959,1.18343 0.819323,1.18343 0.20623,0 0.375746,-0.11157 0.804017,-0.52917 0.520863,-0.50788 0.550919,-0.5601 0.747314,-1.29824 0.521484,-1.95998 1.133085,-2.99859 1.765762,-2.99859 0.326472,0 0.566342,0.1774 0.566342,0.41884 0,0.084 -0.09779,0.37388 -0.217316,0.64415 -0.119525,0.27026 -0.269088,0.62743 -0.332362,0.7937 -0.693176,1.8215 -0.866341,2.54597 -0.608538,2.54597 0.287793,0 0.972747,-1.17659 1.496157,-2.57006 0.626814,-1.66876 0.845614,-1.98374 1.432678,-2.06248 0.709877,-0.0952 0.763055,0.24531 0.228121,1.46079 -0.745344,1.69358 -1.000882,2.91514 -0.624731,2.98641 0.08652,0.0164 0.312588,-0.13907 0.553026,-0.3803 0.343035,-0.34417 0.437068,-0.51298 0.600824,-1.07868 0.271352,-0.93738 1.009633,-2.76975 1.190552,-2.95488 0.08288,-0.0848 0.299321,-0.18852 0.480975,-0.23047 0.273429,-0.0632 0.369741,-0.0476 0.559527,0.0906 0.229247,0.16686 0.229247,0.16686 0.540982,-0.0447 0.616609,-0.41844 1.304106,-0.1526 1.304106,0.50427 0,0.1651 0.0286,0.29928 0.0635,0.29818 0.0349,-0.001 0.1778,-0.15809 0.3175,-0.34886 0.83971,-1.14671 1.95039,-1.24785 2.05234,-0.18689 0.0338,0.35176 -0.0347,0.65548 -0.39669,1.75938 -0.43109,1.31456 -0.50323,1.81703 -0.27179,1.89308 0.0626,0.0206 0.35072,-0.20534 0.64022,-0.50204 0.47489,-0.48671 0.53773,-0.59323 0.64251,-1.08924 0.14129,-0.66883 0.72159,-1.85556 1.15406,-2.36011 0.73443,-0.85683 1.36996,-1.07323 1.88331,-0.64128 0.25596,0.21538 0.25596,0.21538 0.53572,-0.0899 0.36391,-0.3971 0.87039,-0.49294 1.12402,-0.21269 0.18974,0.20966 0.22038,0.0962 -0.49659,1.83839 -0.67766,1.64668 -0.79573,2.49284 -0.33655,2.41197 0.23409,-0.0412 0.82919,-0.653 1.26041,-1.29572 0.35712,-0.53227 0.37939,-0.5994 0.37983,-1.14493 0.001,-1.33702 0.42456,-2.03852 1.31852,-2.18421 0.51922,-0.0846 0.60731,0.0701 0.38229,0.67156 -0.0969,0.25904 -0.20162,0.68711 -0.23266,0.95127 -0.0565,0.4803 -0.0565,0.4803 0.27463,0.28415 1.23557,-0.732 1.56324,-0.83034 1.62838,-0.48871 0.0418,0.21921 -0.089,0.34323 -0.81765,0.77515 -1.10985,0.65792 -1.05854,0.58196 -0.86063,1.27403 0.28227,0.98702 0.20422,1.72334 -0.23118,2.181 -0.82004,0.86198 -1.93461,0.63263 -2.10503,-0.43316 -0.0309,-0.193 -0.0686,-0.35092 -0.0839,-0.35092 -0.0153,0 -0.16802,0.0952 -0.33946,0.21154 -0.64704,0.43909 -1.35422,0.43917 -1.81239,2.5e-4 -0.23302,-0.22325 -0.23634,-0.22375 -0.39271,-0.0589 -0.33735,0.35566 -0.81482,0.60914 -1.1474,0.60914 -0.36976,0 -0.78115,-0.1806 -0.90158,-0.39579 -0.0697,-0.12449 -0.13268,-0.0993 -0.51656,0.20633 -0.84258,0.67087 -1.55554,0.76878 -2.04368,0.28064 -0.4553,-0.4553 -0.41191,-1.28495 0.14493,-2.77141 0.16551,-0.44182 0.2803,-0.82394 0.25509,-0.84915 -0.0751,-0.0751 -0.75423,1.03954 -1.351026,2.21741 -0.57787,1.14048 -0.809838,1.3966 -1.264922,1.3966 -0.372606,0 -0.515981,-0.26578 -0.467311,-0.86628 0.03512,-0.43336 0.370619,-1.60686 0.708457,-2.47805 0.05857,-0.15105 0.05011,-0.15668 -0.07835,-0.0522 -0.303541,0.24695 -1.376503,2.19269 -1.872967,3.3965 -0.323419,0.78422 -0.704014,1.0443 -1.058602,0.7234 -0.120155,-0.10874 -0.188098,-0.0976 -0.57635,0.0945 -0.596335,0.29512 -1.125892,0.22937 -1.496699,-0.18584 -0.252862,-0.28314 -0.252862,-0.28314 -0.647619,0.0861 -0.659697,0.61707 -1.321793,0.70122 -1.759394,0.22361 -0.21344,-0.23295 -0.21344,-0.23295 -0.74664,0.17063 -1.193452,0.90332 -2.085941,0.56617 -2.728048,-1.03056 -0.200071,-0.49751 -0.397461,-0.82701 -0.645027,-1.07673 -0.383927,-0.38727 -0.580887,-0.4463 -0.706167,-0.21167 -0.166294,0.31145 -0.78205,2.54157 -0.83164,3.012 -0.05757,0.5462 -0.209075,0.78506 -0.548865,0.86535 -0.184846,0.0437 -0.254215,0.0103 -0.381,-0.18353 -0.235848,-0.36052 -0.194339,-1.73908 0.09017,-2.99475 0.121267,-0.5352 0.220486,-1.01519 0.220486,-1.06665 0,-0.0515 -0.148513,-0.1519 -0.330029,-0.22321 -0.181516,-0.0713 -0.395447,-0.22948 -0.475404,-0.35151 -0.135137,-0.20624 -0.135608,-0.23677 -0.0067,-0.43353 0.167902,-0.25625 0.180387,-0.25688 0.68335,-0.0344 0.220416,0.0975 0.428777,0.14513 0.463025,0.10584 0.03425,-0.0393 0.397079,-1.06204 0.806293,-2.27278 0.409212,-1.21073 0.762221,-2.24895 0.784463,-2.30716 0.07085,-0.18542 -0.189815,-0.11713 -1.388997,0.36389 -3.228152,1.29489 -6.072157,3.31241 -7.632743,5.41461 -0.572761,0.77154 -1.088476,1.9133 -1.254947,2.77837 -0.121677,0.63229 -0.128437,0.84409 -0.04423,1.38572 0.265267,1.70627 1.18202,2.47219 2.669292,2.23013 0.477684,-0.0777 0.666173,-0.15153 1.214442,-0.47539 0.213178,-0.12593 0.293613,-0.13826 0.37447,-0.0574 0.164869,0.16487 -0.04063,0.4994 -0.428246,0.69715 -0.818584,0.41761 -2.013998,0.53154 -2.78459,0.2654 z m 31.626751,-6.51187 c -0.0238,-0.29667 -0.0795,-0.5756 -0.12374,-0.61984 -0.13539,-0.13539 -0.2989,0.15546 -0.3425,0.60922 -0.0314,0.32712 -0.006,0.46061 0.11022,0.58956 0.12161,0.13438 0.17493,0.1467 0.27508,0.0636 0.0947,-0.0786 0.11393,-0.23147 0.0809,-0.64252 z m -4.57448,-0.0369 c 0.53344,-0.58655 0.77701,-1.18737 0.96291,-2.37524 0.0765,-0.4885 0.0786,-0.68552 0.008,-0.75577 -0.16137,-0.16137 -0.42404,0.16706 -0.87964,1.09984 -0.33227,0.68028 -0.43384,0.98687 -0.46803,1.41279 -0.0647,0.80567 0.0439,0.984 0.37638,0.61838 z m -16.661612,-1.3792 c 1.597411,-0.37653 2.752994,-1.6216 3.227683,-3.47762 0.190505,-0.74486 0.213053,-1.4176 0.05785,-1.72601 -0.134444,-0.26717 -0.532345,-0.31919 -0.944694,-0.12352 -0.862414,0.40924 -2.643329,2.90952 -3.173449,4.45529 -0.133147,0.38824 -0.269283,0.77257 -0.302524,0.85406 -0.05142,0.12606 -0.0117,0.14798 0.266121,0.14692 0.179608,-6.8e-4 0.570663,-0.0588 0.869012,-0.12912 z m 4.576909,-2.54444 c -0.189339,-0.498 0.264843,-0.87247 1.603687,-1.32221 2.104191,-0.70684 8.733956,-1.79956 11.331766,-1.8677 0.95652,-0.0251 1.14529,0.0812 1.34128,0.75541 0.11147,0.38345 0.12019,0.54006 0.0442,0.79379 -0.15901,0.53074 -0.19047,0.5381 -1.59321,0.37276 -1.80578,-0.21285 -4.64042,-0.19631 -6.387414,0.0373 -1.865542,0.24943 -3.217499,0.54778 -4.676218,1.03197 -0.692956,0.23001 -1.332074,0.4182 -1.420262,0.4182 -0.09465,0 -0.19453,-0.0899 -0.243789,-0.21948 z m 2.21831,-2.28638 c -0.278476,-0.19505 -0.214984,-0.52932 0.146682,-0.77224 0.358002,-0.24046 0.342173,-0.24016 -1.071148,0.0209 -1.139824,0.21052 -1.162867,0.21145 -1.373241,0.055 -0.282839,-0.21032 -0.307493,-0.44661 -0.06932,-0.66438 0.106713,-0.0976 0.727422,-0.41159 1.379355,-0.69783 0.651933,-0.28624 1.299633,-0.57756 1.439333,-0.6474 0.252818,-0.12637 0.252029,-0.12673 -0.169333,-0.0779 -2.004835,0.23228 -2.286437,0.23078 -2.7714,-0.0147 -0.357143,-0.18076 -0.488436,-0.52427 -0.487015,-1.27421 0.0026,-1.37533 0.427318,-2.39986 1.400911,-3.3794 0.70513,-0.70944 1.530467,-1.1975 2.622576,-1.55086 1.409656,-0.4561 2.109175,-0.55151 4.060928,-0.55392 1.778005,-0.002 1.778005,-0.002 2.577745,0.27691 1.01714,0.35498 1.69215,0.76616 2.33292,1.42107 0.62652,0.64035 1.00265,1.25891 1.32013,2.171 0.45084,1.29524 0.35167,1.45099 -1.04163,1.63587 -0.47914,0.0636 -1.46171,0.22966 -2.1835,0.36907 -1.12622,0.21752 -1.64014,0.32464 -2.77408,0.57822 -0.322883,0.0722 -0.332856,0.22154 -0.011,0.16454 0.76366,-0.13523 2.52715,-0.23911 3.61825,-0.21312 1.15561,0.0275 1.22194,0.0385 1.37527,0.22809 0.10716,0.1325 0.14378,0.26813 0.1094,0.40511 -0.0517,0.20593 -0.0517,0.20593 0.96221,0.14863 0.96321,-0.0544 1.02296,-0.0482 1.19525,0.12406 0.2248,0.2248 0.22934,0.38738 0.0168,0.59997 -0.20635,0.20634 -0.35237,0.22683 -2.37539,0.33316 -1.70816,0.0898 -4.73962,0.515 -8.195488,1.14956 -0.8986,0.165 -1.680697,0.3 -1.737994,0.3 -0.0573,0 -0.191028,-0.0608 -0.297181,-0.13519 z m 1.307785,-6.07447 c 0.318783,-0.2742 0.230186,-0.5227 -0.158634,-0.44494 -0.335587,0.0671 -0.612499,0.327 -0.542577,0.50922 0.07542,0.19654 0.436472,0.16344 0.701211,-0.0643 z m -1.32179,-0.98701 c 0.07625,-0.14247 0.06439,-0.16933 -0.07476,-0.16933 -0.255148,0 -0.433237,0.0907 -0.433237,0.22073 0,0.18423 0.403756,0.14338 0.508,-0.0514 z m 2.713538,-0.8065 c 0.314112,-0.16244 0.344972,-0.4635 0.04751,-0.4635 -0.278193,0 -0.602401,0.27464 -0.534155,0.45248 0.06668,0.17377 0.167506,0.17605 0.486647,0.011 z"
           style="opacity:0.95999995;fill:#ffffff;fill-opacity:1;stroke-width:0.08466667" />
        <path
           inkscape:connector-curvature="0"
           id="path86"
           d="m 78.131155,200.4984 c -0.739757,-0.18552 -1.230083,-0.53238 -1.615379,-1.14273 -0.569122,-0.90154 -0.63799,-2.53686 -0.163569,-3.88403 0.374533,-1.06353 1.049402,-2.08824 2.097003,-3.18405 0.93488,-0.9779 1.783244,-1.67078 3.195611,-2.60993 2.726802,-1.81317 6.437255,-3.49649 7.01986,-3.18469 0.247731,0.13258 0.266109,0.30269 0.08848,0.81897 -0.09112,0.26485 -0.165673,0.50066 -0.165673,0.52404 0,0.0234 0.238125,-0.18587 0.529167,-0.46498 0.95707,-0.91783 1.608156,-1.21054 2.303313,-1.0355 0.933037,0.23494 1.25772,1.23033 0.930674,2.85321 -0.253969,1.26025 -0.978648,2.45626 -1.920128,3.16897 -0.489433,0.3705 -1.493339,0.82624 -1.826703,0.82925 -0.362141,0.003 -0.383609,0.12585 -0.120297,0.68679 0.13931,0.29677 0.320987,0.74858 0.403726,1.00403 0.187384,0.5785 0.525499,0.9429 0.810636,0.87363 0.285899,-0.0695 0.690272,-0.38724 1.047573,-0.82328 0.229323,-0.27986 0.347096,-0.54343 0.466835,-1.04476 0.08808,-0.36876 0.277423,-0.96572 0.420769,-1.32657 0.520451,-1.31016 0.675527,-1.50505 1.286366,-1.6166 0.271672,-0.0496 0.328053,-0.0295 0.453288,0.16162 0.161381,0.2463 0.162756,0.24065 -0.34231,1.40651 -0.641954,1.48186 -0.952164,2.69135 -0.726105,2.83107 0.229554,0.14187 1.024415,-1.17093 1.537712,-2.5397 0.645756,-1.72199 0.930661,-2.10323 1.571763,-2.10323 0.525636,0 0.575002,0.28399 0.19386,1.11522 -0.609374,1.32899 -1.068091,2.83181 -0.964243,3.159 0.08374,0.26384 0.358958,0.18763 0.794849,-0.2201 0.366273,-0.3426 0.437376,-0.47258 0.68316,-1.24883 0.42568,-1.34441 0.923788,-2.5366 1.166775,-2.79259 0.17373,-0.18303 0.298208,-0.23284 0.581954,-0.23284 0.255252,0 0.385602,0.0434 0.445129,0.14817 0.07496,0.13195 0.105544,0.13494 0.279374,0.0273 0.414302,-0.2565 0.62621,-0.3437 0.830197,-0.34161 0.390904,0.004 0.677338,0.36679 0.677338,0.85788 0,0.27956 0,0.27956 0.51695,-0.29322 0.76987,-0.85301 1.19915,-1.0128 1.65849,-0.61736 0.36005,0.30996 0.32374,0.90966 -0.13369,2.20849 -0.54254,1.54049 -0.59839,1.98967 -0.24738,1.98967 0.20414,0 1.03351,-0.84391 1.14528,-1.16536 0.0443,-0.1274 0.18491,-0.55549 0.31247,-0.95131 0.64346,-1.99665 2.09821,-3.25357 2.84295,-2.45633 0.23634,0.25301 0.23634,0.25301 0.45959,-0.0397 0.41407,-0.54288 1.23467,-0.58409 1.23467,-0.062 0,0.12652 -0.19165,0.68226 -0.42589,1.23499 -0.68046,1.60566 -0.9278,2.70307 -0.63459,2.81559 0.20053,0.077 0.66479,-0.26594 1.07298,-0.79248 0.75932,-0.97947 0.77475,-1.01149 0.75993,-1.57672 -0.0147,-0.55953 0.17294,-1.41526 0.37948,-1.7309 0.19927,-0.30456 0.63013,-0.52446 1.02826,-0.52481 0.42653,-3.4e-4 0.43663,0.044 0.1894,0.83273 -0.15667,0.4998 -0.22769,1.19895 -0.12179,1.19895 0.0256,0 0.36297,-0.1905 0.74984,-0.42333 0.7528,-0.45307 0.90178,-0.49466 1.06548,-0.29741 0.16846,0.20297 0.055,0.33414 -0.64786,0.74879 -0.36496,0.21532 -0.77121,0.47868 -0.90277,0.58523 -0.23919,0.19373 -0.23919,0.19373 -0.0635,0.8645 0.20247,0.77299 0.21477,1.14349 0.053,1.597 -0.14432,0.40465 -0.34086,0.62427 -0.74179,0.8289 -0.78898,0.40268 -1.59088,-0.0194 -1.59088,-0.83736 0,-0.36573 -0.0711,-0.37727 -0.48643,-0.079 -0.32971,0.23678 -0.44791,0.27233 -0.90548,0.27233 -0.44731,0 -0.57342,-0.036 -0.84051,-0.23968 -0.31423,-0.23968 -0.31423,-0.23968 -0.654,0.0673 -0.68631,0.62004 -1.04651,0.62589 -1.86899,0.0304 -0.11828,-0.0856 -0.19844,-0.0503 -0.49618,0.21868 -0.43416,0.39223 -0.81295,0.55836 -1.27313,0.55836 -1.0731,0 -1.29684,-0.90652 -0.6687,-2.70933 0.18659,-0.53552 0.36188,-1.04034 0.38955,-1.12184 0.0277,-0.0815 0.0114,-0.14816 -0.036,-0.14816 -0.14032,0 -0.69161,0.89091 -1.335974,2.159 -0.601445,1.18363 -0.919844,1.56633 -1.303139,1.56633 -0.582836,0 -0.620038,-0.80015 -0.106284,-2.286 0.185164,-0.53552 0.364279,-1.04034 0.398034,-1.12183 0.03719,-0.0898 0.02376,-0.14817 -0.03406,-0.14817 -0.208513,0 -1.236369,1.79755 -2.019938,3.53254 -0.284609,0.63019 -0.394691,0.79142 -0.57045,0.83554 -0.14964,0.0376 -0.270011,0.007 -0.384691,-0.0964 -0.160623,-0.14536 -0.182554,-0.14372 -0.582699,0.0437 -0.328449,0.15384 -0.510406,0.18566 -0.866182,0.15147 -0.389967,-0.0375 -0.483257,-0.0839 -0.695399,-0.34599 -0.245012,-0.30272 -0.245012,-0.30272 -0.612723,0.0756 -0.417483,0.42956 -0.659815,0.54484 -1.145293,0.54484 -0.26452,0 -0.395864,-0.0562 -0.593669,-0.254 -0.1397,-0.1397 -0.282527,-0.254 -0.317395,-0.254 -0.03487,0 -0.155761,0.0989 -0.268654,0.21973 -0.582745,0.62381 -1.440881,0.83224 -2.032224,0.4936 -0.233889,-0.13393 -0.387569,-0.36414 -0.797701,-1.19492 -0.2794,-0.56596 -0.58411,-1.11214 -0.677133,-1.21372 -0.223884,-0.24447 -0.637603,-0.45374 -0.721714,-0.36506 -0.13154,0.1387 -0.764052,2.26949 -0.898249,3.02601 -0.0845,0.47636 -0.189128,0.81176 -0.27434,0.87945 -0.207613,0.16493 -0.541642,0.0893 -0.67018,-0.15175 -0.180241,-0.33801 -0.07558,-2.05165 0.19093,-3.12627 0.221799,-0.89432 0.210178,-1.0171 -0.09665,-1.0211 -0.166173,-0.002 -0.62033,-0.43014 -0.62033,-0.58456 0,-0.3514 0.322489,-0.4338 0.802309,-0.20499 0.191913,0.0915 0.329377,0.11376 0.381416,0.0617 0.09073,-0.0907 1.610276,-4.48449 1.610276,-4.65612 0,-0.13634 -0.204591,-0.0808 -1.276679,0.34635 -4.062282,1.61867 -7.415742,4.29187 -8.588541,6.8463 -0.896297,1.9522 -0.625044,4.12626 0.604747,4.84697 0.694939,0.40726 1.839193,0.34516 2.606508,-0.14145 0.448733,-0.28458 0.520752,-0.29996 0.587703,-0.12549 0.08856,0.2308 -0.334462,0.60233 -0.895514,0.78651 -0.540705,0.1775 -1.575573,0.29871 -1.885891,0.22088 z m 31.208495,-6.10626 c 0.0939,-0.24472 0.0527,-0.69564 -0.10002,-1.0957 -0.0884,-0.23142 -0.0941,-0.2333 -0.21392,-0.0701 -0.24953,0.33986 -0.31448,0.74694 -0.17315,1.08519 0.15509,0.3712 0.36247,0.40551 0.48709,0.0806 z m -4.28291,-0.91615 c 0.22471,-0.32887 0.40436,-0.72527 0.4988,-1.10067 0.19606,-0.77936 0.27133,-1.68752 0.14627,-1.76482 -0.15734,-0.0972 -0.51355,0.36864 -0.9008,1.17814 -0.42176,0.88164 -0.59167,1.53034 -0.51203,1.95487 0.0843,0.44953 0.33826,0.36105 0.76776,-0.26752 z m -16.501385,-1.13323 c 1.294951,-0.45454 2.231159,-1.53376 2.720843,-3.13646 0.597496,-1.95555 0.04292,-2.78907 -1.238216,-1.86101 -0.823664,0.59666 -2.41003,3.01126 -2.879904,4.38349 -0.148179,0.43274 -0.250956,0.81668 -0.228392,0.85319 0.06382,0.10326 1.073114,-0.0453 1.625669,-0.23921 z m 4.237245,-2.34623 c -0.145817,-0.14582 -0.04434,-0.53136 0.192257,-0.73044 0.431728,-0.36328 2.031698,-0.8654 4.082317,-1.28117 2.443736,-0.49548 6.440436,-1.04674 8.138386,-1.12253 1.13158,-0.0505 1.17252,-0.0463 1.37101,0.14016 0.26363,0.24766 0.40688,0.88461 0.2923,1.2996 -0.0464,0.16796 -0.11984,0.32732 -0.16326,0.35416 -0.0434,0.0268 -0.62303,-0.0169 -1.28803,-0.0971 -1.60004,-0.19305 -4.66773,-0.19246 -6.225353,0.001 -2.029869,0.25237 -4.114458,0.73105 -5.570695,1.27918 -0.593494,0.22339 -0.735571,0.25028 -0.828932,0.15692 z m 2.123722,-2.40567 c -0.175953,-0.10249 -0.195544,-0.44117 -0.03331,-0.57581 0.06317,-0.0524 0.567997,-0.24592 1.121833,-0.42997 0.553835,-0.18405 0.911724,-0.33614 0.795307,-0.33798 -0.116416,-0.002 -0.954617,0.1487 -1.862667,0.33454 -1.780784,0.36444 -2.291266,0.40935 -2.451957,0.21573 -0.28121,-0.33884 -0.01201,-0.53028 1.859291,-1.32222 1.882518,-0.7967 1.97655,-0.83985 1.930479,-0.88592 -0.02366,-0.0237 -0.534375,0.0371 -1.134917,0.13497 -0.721407,0.1176 -1.357023,0.16845 -1.873273,0.14988 -0.722395,-0.026 -0.799046,-0.0458 -1.015435,-0.2623 -0.208575,-0.2087 -0.23734,-0.30651 -0.264222,-0.89846 -0.03924,-0.86398 0.09406,-1.47575 0.496524,-2.27892 0.656691,-1.3105 1.93868,-2.28389 3.684914,-2.7979 1.268418,-0.37336 2.042326,-0.4709 3.76393,-0.47438 1.890351,-0.004 2.275771,0.0687 3.471341,0.65322 1.38309,0.67621 2.5582,2.18274 2.87597,3.68711 0.15876,0.75161 0.0808,0.81693 -1.18264,0.99115 -2.23246,0.30783 -6.885675,1.36762 -6.416952,1.46148 0.07959,0.0159 0.555845,-0.0306 1.058333,-0.1034 2.042879,-0.29599 4.632639,-0.39874 5.186239,-0.20575 0.26236,0.0915 0.27394,0.1133 0.23075,0.43535 -0.0455,0.33905 -0.0455,0.33905 1.00253,0.28082 0.9954,-0.0553 1.05701,-0.0492 1.22742,0.1212 0.16119,0.16118 0.1671,0.19798 0.0581,0.36207 -0.15783,0.23771 -0.38095,0.2942 -1.20346,0.3047 -1.85962,0.0237 -5.27116,0.46985 -9.423157,1.23223 -1.844723,0.33873 -1.70402,0.32329 -1.901014,0.20856 z m 1.209478,-5.8791 c 0.246883,-0.12767 0.402248,-0.45726 0.29633,-0.62864 -0.172248,-0.27871 -1.061308,0.0945 -1.061308,0.44549 0,0.10934 0.0254,0.22421 0.05644,0.25525 0.0975,0.0975 0.449928,0.0616 0.708533,-0.0721 z m -1.32673,-0.97827 c 0.369881,-0.29095 0.21083,-0.58957 -0.22563,-0.42363 -0.305971,0.11633 -0.440414,0.31893 -0.313285,0.47211 0.142481,0.17168 0.274079,0.15984 0.538915,-0.0485 z m 2.949358,-1.00032 c 0.236315,-0.21115 0.258165,-0.26309 0.160302,-0.381 -0.155327,-0.18716 -0.449013,-0.17119 -0.716157,0.0389 -0.212516,0.16716 -0.288345,0.40837 -0.16664,0.53007 0.128705,0.12871 0.466357,0.0408 0.722495,-0.18802 z"
           style="fill:#a0a0a0;stroke-width:0.08466667" />
        <path
           inkscape:connector-curvature="0"
           id="path84"
           d="m 78.249938,200.37672 c -0.503693,-0.0794 -0.807479,-0.24315 -1.193859,-0.6436 -0.621339,-0.64398 -0.973512,-1.78648 -0.884218,-2.86856 0.198651,-2.40725 2.019489,-4.78656 5.388294,-7.04092 1.959438,-1.31124 5.213609,-2.95457 6.366079,-3.21483 0.569774,-0.12867 0.598576,-0.12748 0.757425,0.0314 0.163728,0.16373 0.163302,0.17019 -0.05019,0.76204 -0.118425,0.3283 -0.215317,0.64865 -0.215317,0.71189 0,0.0632 0.300393,-0.19567 0.667541,-0.57536 1.038822,-1.0743 1.832757,-1.39382 2.547855,-1.02541 0.507448,0.26144 0.69605,0.6108 0.745472,1.38091 0.05241,0.81662 -0.15521,1.74948 -0.593504,2.66672 -0.266554,0.55783 -0.479167,0.85336 -0.945459,1.31418 -0.670585,0.66272 -1.238842,0.97801 -2.161973,1.19956 -0.329229,0.079 -0.598599,0.17594 -0.598599,0.21539 0,0.0395 0.07532,0.17496 0.167384,0.30113 0.09206,0.12618 0.299444,0.5866 0.460851,1.02316 0.350105,0.94694 0.552214,1.19591 0.970799,1.19591 0.258539,0 0.377167,-0.0794 0.867065,-0.58005 0.418375,-0.4276 0.593827,-0.67795 0.667533,-0.9525 0.268137,-0.9988 0.636233,-2.03619 0.904409,-2.54886 0.240801,-0.46033 0.351186,-0.58563 0.583477,-0.66229 0.663247,-0.21889 0.830305,0.10331 0.473767,0.91374 -0.771794,1.75434 -1.056654,2.62829 -1.015743,3.11629 0.03616,0.43132 0.187031,0.45244 0.533102,0.0746 0.385521,-0.4209 0.809963,-1.2451 1.405466,-2.72921 0.270284,-0.6736 0.5725,-1.31102 0.671588,-1.4165 0.336484,-0.35817 1.014969,-0.33242 1.014969,0.0385 0,0.0871 -0.118222,0.41919 -0.262717,0.73785 -0.400804,0.88393 -0.813374,2.05921 -0.914062,2.60388 -0.145575,0.78749 0.100723,1.01928 0.651382,0.61302 0.467043,-0.34458 0.7511,-0.79042 0.988298,-1.5512 0.344685,-1.10552 0.876953,-2.44164 1.0709,-2.6882 0.138474,-0.17604 0.244578,-0.21844 0.546678,-0.21844 0.20617,0 0.375438,0.0286 0.376151,0.0635 6.77e-4,0.0349 0.03468,0.11622 0.07549,0.18064 0.05986,0.0945 0.132607,0.0726 0.376534,-0.11346 0.166289,-0.12684 0.450099,-0.25043 0.630689,-0.27465 0.28412,-0.0381 0.352971,-0.0127 0.51117,0.18838 0.130419,0.16581 0.182825,0.3505 0.182825,0.64434 0,0.22656 0.0286,0.40986 0.0635,0.40735 0.0349,-0.003 0.22425,-0.23002 0.42073,-0.50558 0.41584,-0.58322 0.96678,-1.01385 1.29709,-1.01385 0.7424,0 0.8267,0.79032 0.25286,2.37066 -0.41106,1.13204 -0.52942,1.66852 -0.4152,1.88194 0.17851,0.33355 0.64589,0.0698 1.26557,-0.71414 0.22398,-0.28336 0.35025,-0.55272 0.41845,-0.89264 0.11991,-0.59765 0.64408,-1.71309 1.03976,-2.21262 0.38195,-0.4822 0.94331,-0.85654 1.28447,-0.85654 0.18698,0 0.34116,0.0766 0.5111,0.254 0.13384,0.1397 0.27121,0.254 0.30527,0.254 0.0341,0 0.14387,-0.13259 0.24402,-0.29465 0.28143,-0.45536 1.0247,-0.60165 1.12418,-0.22126 0.0215,0.0823 -0.16716,0.63964 -0.41931,1.23845 -0.72291,1.71679 -0.94242,2.68498 -0.66157,2.91807 0.28782,0.23887 0.94044,-0.29832 1.69747,-1.39726 0.31821,-0.46193 0.33703,-0.52569 0.38409,-1.30104 0.0806,-1.32818 0.43471,-1.87364 1.21631,-1.87364 0.35229,0 0.35672,0.0255 0.13012,0.74838 -0.18164,0.57943 -0.22444,1.28362 -0.078,1.28362 0.0496,0 0.41273,-0.1905 0.80693,-0.42333 0.73012,-0.43125 0.91313,-0.49194 1.01015,-0.33496 0.0849,0.13732 -0.10738,0.31469 -0.74428,0.68666 -0.32272,0.18848 -0.69852,0.44363 -0.83511,0.56699 -0.24834,0.22431 -0.24834,0.22431 -0.0665,0.93834 0.21092,0.82825 0.18148,1.38335 -0.0973,1.83444 -0.20487,0.33149 -0.71375,0.62653 -1.08064,0.62653 -0.47971,0 -0.94612,-0.583 -0.94612,-1.18262 0,-0.14119 -0.0235,-0.25672 -0.0522,-0.25672 -0.0287,0 -0.23675,0.13551 -0.46236,0.30112 -0.22562,0.16562 -0.54092,0.32234 -0.70068,0.34826 -0.37853,0.0614 -0.85716,-0.10068 -1.0605,-0.35917 -0.20845,-0.26501 -0.26624,-0.25927 -0.56596,0.0562 -0.59773,0.62918 -1.23282,0.72137 -1.68902,0.2452 -0.13328,-0.13912 -0.27699,-0.25295 -0.31934,-0.25295 -0.0423,0 -0.24571,0.1485 -0.45191,0.33001 -0.69478,0.61157 -1.2669,0.7512 -1.7846,0.43554 -0.33272,-0.20288 -0.49042,-0.70093 -0.41115,-1.2985 0.0299,-0.22564 0.20852,-0.83621 0.39685,-1.35682 0.40184,-1.11075 0.45952,-1.32756 0.35321,-1.32756 -0.0945,0 -0.43664,0.36374 -0.68979,0.73325 -0.10083,0.14717 -0.4724,0.83297 -0.825708,1.524 -0.353311,0.69103 -0.719317,1.32309 -0.813346,1.40458 -0.242712,0.21035 -0.630681,0.1922 -0.752379,-0.0352 -0.155555,-0.29066 -0.04048,-1.0629 0.302009,-2.02668 0.385231,-1.08407 0.449862,-1.38216 0.288192,-1.3292 -0.314385,0.10297 -1.224282,1.60694 -1.983742,3.27893 -0.243574,0.53623 -0.51969,1.02599 -0.613591,1.08834 -0.149674,0.0994 -0.192406,0.0901 -0.346494,-0.0753 -0.175764,-0.18867 -0.175764,-0.18867 -0.609365,0.0473 -0.572892,0.31181 -1.102745,0.27356 -1.440044,-0.10394 -0.123769,-0.13852 -0.244263,-0.30419 -0.267764,-0.36816 -0.02943,-0.0801 -0.184201,0.019 -0.497376,0.3185 -0.536156,0.51275 -0.730759,0.62354 -1.095254,0.62354 -0.199733,0 -0.34403,-0.0777 -0.550214,-0.29634 -0.153713,-0.16298 -0.299761,-0.29633 -0.324551,-0.29633 -0.02479,0 -0.170224,0.10939 -0.323185,0.24309 -0.595691,0.52068 -0.920902,0.68824 -1.33574,0.68824 -0.721028,0 -0.96696,-0.27319 -1.699423,-1.88781 -0.279846,-0.61688 -0.768982,-1.07552 -1.147035,-1.07552 -0.177082,0 -0.232404,0.11405 -0.582097,1.20005 -0.21253,0.66003 -0.443279,1.52612 -0.512774,1.92464 -0.13785,0.79049 -0.285106,1.03835 -0.527133,0.88728 -0.08062,-0.0503 -0.198374,-0.24017 -0.261682,-0.4219 -0.14029,-0.4027 -0.02449,-1.78779 0.242197,-2.89693 0.09308,-0.38713 0.16924,-0.7552 0.16924,-0.81795 0,-0.0628 -0.171594,-0.19715 -0.381321,-0.29868 -0.253159,-0.12255 -0.39886,-0.25447 -0.433502,-0.39249 -0.07733,-0.30809 0.0093,-0.33454 0.523419,-0.15979 0.283786,0.0965 0.495768,0.12775 0.543062,0.0802 0.07573,-0.0762 1.695676,-4.73345 1.695676,-4.87497 0,-0.13344 -0.244979,-0.072 -1.202738,0.30164 -2.260716,0.88197 -3.836489,1.76408 -5.61434,3.14288 -2.03323,1.57686 -3.347365,3.39324 -3.728656,5.15371 -0.34298,1.58359 0.136968,3.12204 1.151687,3.69168 0.321241,0.18034 0.485124,0.21164 1.107259,0.21146 0.676401,-1.6e-4 0.774093,-0.0231 1.325652,-0.31123 0.612349,-0.31986 0.752362,-0.33344 0.605326,-0.0587 -0.226248,0.42275 -1.670802,0.79825 -2.542407,0.66089 z m 31.118422,-5.85525 c 0.16807,-0.23996 0.17053,-0.90991 0.005,-1.30658 -0.11259,-0.26947 -0.14299,-0.29078 -0.26776,-0.18778 -0.23126,0.19091 -0.4731,0.82398 -0.41112,1.07622 0.0776,0.316 0.27972,0.60631 0.42204,0.60631 0.0661,0 0.17955,-0.0847 0.25205,-0.18817 z m -4.44277,-0.722 c 0.43733,-0.52643 0.75105,-1.27098 0.89653,-2.1277 0.15013,-0.88413 0.1173,-1.19547 -0.12605,-1.19547 -0.5913,0 -1.73265,2.67589 -1.45355,3.40784 0.12421,0.32574 0.36713,0.29563 0.68307,-0.0847 z m -16.772523,-1.24483 c 1.146471,-0.30515 2.236902,-1.17073 2.781078,-2.20761 0.379326,-0.72278 0.701343,-1.89407 0.701343,-2.55105 0,-0.47214 -0.029,-0.5737 -0.217678,-0.76238 -0.18881,-0.18881 -0.264082,-0.21026 -0.56759,-0.16173 -0.192452,0.0308 -0.472629,0.1318 -0.622616,0.22449 -0.602682,0.37248 -1.638607,1.6898 -2.52478,3.21061 -0.28291,0.48552 -0.893336,2.04516 -0.893336,2.28248 0,0.12797 0.810918,0.10696 1.343579,-0.0348 z m 4.639533,-2.55811 c -0.145817,-0.14582 -0.04434,-0.53136 0.192257,-0.73044 0.431728,-0.36328 2.031698,-0.8654 4.082317,-1.28117 2.443736,-0.49548 6.440436,-1.04674 8.138386,-1.12253 1.13158,-0.0505 1.17252,-0.0463 1.37101,0.14016 0.26363,0.24766 0.40688,0.88461 0.2923,1.2996 -0.0464,0.16796 -0.11984,0.32732 -0.16326,0.35416 -0.0434,0.0268 -0.62303,-0.0169 -1.28803,-0.0971 -1.60004,-0.19305 -4.66773,-0.19246 -6.225353,0.001 -2.029869,0.25237 -4.114458,0.73105 -5.570695,1.27918 -0.593494,0.22339 -0.735571,0.25028 -0.828932,0.15692 z m 2.123722,-2.40567 c -0.175953,-0.10249 -0.195544,-0.44117 -0.03331,-0.57581 0.06317,-0.0524 0.567997,-0.24592 1.121833,-0.42997 0.553835,-0.18405 0.911724,-0.33614 0.795307,-0.33798 -0.116416,-0.002 -0.954617,0.1487 -1.862667,0.33454 -1.780784,0.36444 -2.291266,0.40935 -2.451957,0.21573 -0.28121,-0.33884 -0.01201,-0.53028 1.859291,-1.32222 1.882518,-0.7967 1.97655,-0.83985 1.930479,-0.88592 -0.02366,-0.0237 -0.534375,0.0371 -1.134917,0.13497 -0.721407,0.1176 -1.357023,0.16845 -1.873273,0.14988 -0.722395,-0.026 -0.799046,-0.0458 -1.015435,-0.2623 -0.208575,-0.2087 -0.23734,-0.30651 -0.264222,-0.89846 -0.03924,-0.86398 0.09406,-1.47575 0.496524,-2.27892 0.656691,-1.3105 1.93868,-2.28389 3.684914,-2.7979 1.268418,-0.37336 2.042326,-0.4709 3.76393,-0.47438 1.890351,-0.004 2.275771,0.0687 3.471341,0.65322 1.38309,0.67621 2.5582,2.18274 2.87597,3.68711 0.15876,0.75161 0.0808,0.81693 -1.18264,0.99115 -2.23246,0.30783 -6.885675,1.36762 -6.416952,1.46148 0.07959,0.0159 0.555845,-0.0306 1.058333,-0.1034 2.042879,-0.29599 4.632639,-0.39874 5.186239,-0.20575 0.26236,0.0915 0.27394,0.1133 0.23075,0.43535 -0.0455,0.33905 -0.0455,0.33905 1.00253,0.28082 0.9954,-0.0553 1.05701,-0.0492 1.22742,0.1212 0.16119,0.16118 0.1671,0.19798 0.0581,0.36207 -0.15783,0.23771 -0.38095,0.2942 -1.20346,0.3047 -1.85962,0.0237 -5.27116,0.46985 -9.423157,1.23223 -1.844723,0.33873 -1.70402,0.32329 -1.901014,0.20856 z m 1.209478,-5.8791 c 0.246883,-0.12767 0.402248,-0.45726 0.29633,-0.62864 -0.172248,-0.27871 -1.061308,0.0945 -1.061308,0.44549 0,0.10934 0.0254,0.22421 0.05644,0.25525 0.0975,0.0975 0.449928,0.0616 0.708533,-0.0721 z m -1.32673,-0.97827 c 0.369881,-0.29095 0.21083,-0.58957 -0.22563,-0.42363 -0.305971,0.11633 -0.440414,0.31893 -0.313285,0.47211 0.142481,0.17168 0.274079,0.15984 0.538915,-0.0485 z m 2.949358,-1.00032 c 0.236315,-0.21115 0.258165,-0.26309 0.160302,-0.381 -0.155327,-0.18716 -0.449013,-0.17119 -0.716157,0.0389 -0.212516,0.16716 -0.288345,0.40837 -0.16664,0.53007 0.128705,0.12871 0.466357,0.0408 0.722495,-0.18802 z"
           style="fill:#db7389;stroke-width:0.08466667" />
        <path
           inkscape:connector-curvature="0"
           id="path82"
           d="m 78.249938,200.37672 c -0.503693,-0.0794 -0.807479,-0.24315 -1.193859,-0.6436 -0.621339,-0.64398 -0.973512,-1.78648 -0.884218,-2.86856 0.198651,-2.40725 2.019489,-4.78656 5.388294,-7.04092 1.959438,-1.31124 5.213609,-2.95457 6.366079,-3.21483 0.569774,-0.12867 0.598576,-0.12748 0.757425,0.0314 0.163728,0.16373 0.163302,0.17019 -0.05019,0.76204 -0.118425,0.3283 -0.215317,0.64865 -0.215317,0.71189 0,0.0632 0.300393,-0.19567 0.667541,-0.57536 1.038822,-1.0743 1.832757,-1.39382 2.547855,-1.02541 0.507448,0.26144 0.69605,0.6108 0.745472,1.38091 0.05241,0.81662 -0.15521,1.74948 -0.593504,2.66672 -0.266554,0.55783 -0.479167,0.85336 -0.945459,1.31418 -0.670585,0.66272 -1.238842,0.97801 -2.161973,1.19956 -0.329229,0.079 -0.598599,0.17594 -0.598599,0.21539 0,0.0395 0.07532,0.17496 0.167384,0.30113 0.09206,0.12618 0.299444,0.5866 0.460851,1.02316 0.350105,0.94694 0.552214,1.19591 0.970799,1.19591 0.258539,0 0.377167,-0.0794 0.867065,-0.58005 0.418375,-0.4276 0.593827,-0.67795 0.667533,-0.9525 0.268137,-0.9988 0.636233,-2.03619 0.904409,-2.54886 0.240801,-0.46033 0.351186,-0.58563 0.583477,-0.66229 0.663247,-0.21889 0.830305,0.10331 0.473767,0.91374 -0.771794,1.75434 -1.056654,2.62829 -1.015743,3.11629 0.03616,0.43132 0.187031,0.45244 0.533102,0.0746 0.385521,-0.4209 0.809963,-1.2451 1.405466,-2.72921 0.270284,-0.6736 0.5725,-1.31102 0.671588,-1.4165 0.336484,-0.35817 1.014969,-0.33242 1.014969,0.0385 0,0.0871 -0.118222,0.41919 -0.262717,0.73785 -0.400804,0.88393 -0.813374,2.05921 -0.914062,2.60388 -0.145575,0.78749 0.100723,1.01928 0.651382,0.61302 0.467043,-0.34458 0.7511,-0.79042 0.988298,-1.5512 0.344685,-1.10552 0.876953,-2.44164 1.0709,-2.6882 0.138474,-0.17604 0.244578,-0.21844 0.546678,-0.21844 0.20617,0 0.375438,0.0286 0.376151,0.0635 6.77e-4,0.0349 0.03468,0.11622 0.07549,0.18064 0.05986,0.0945 0.132607,0.0726 0.376534,-0.11346 0.166289,-0.12684 0.450099,-0.25043 0.630689,-0.27465 0.28412,-0.0381 0.352971,-0.0127 0.51117,0.18838 0.130419,0.16581 0.182825,0.3505 0.182825,0.64434 0,0.22656 0.0286,0.40986 0.0635,0.40735 0.0349,-0.003 0.22425,-0.23002 0.42073,-0.50558 0.41584,-0.58322 0.96678,-1.01385 1.29709,-1.01385 0.7424,0 0.8267,0.79032 0.25286,2.37066 -0.41106,1.13204 -0.52942,1.66852 -0.4152,1.88194 0.17851,0.33355 0.64589,0.0698 1.26557,-0.71414 0.22398,-0.28336 0.35025,-0.55272 0.41845,-0.89264 0.11991,-0.59765 0.64408,-1.71309 1.03976,-2.21262 0.38195,-0.4822 0.94331,-0.85654 1.28447,-0.85654 0.18698,0 0.34116,0.0766 0.5111,0.254 0.13384,0.1397 0.27121,0.254 0.30527,0.254 0.0341,0 0.14387,-0.13259 0.24402,-0.29465 0.28143,-0.45536 1.0247,-0.60165 1.12418,-0.22126 0.0215,0.0823 -0.16716,0.63964 -0.41931,1.23845 -0.72291,1.71679 -0.94242,2.68498 -0.66157,2.91807 0.28782,0.23887 0.94044,-0.29832 1.69747,-1.39726 0.31821,-0.46193 0.33703,-0.52569 0.38409,-1.30104 0.0806,-1.32818 0.43471,-1.87364 1.21631,-1.87364 0.35229,0 0.35672,0.0255 0.13012,0.74838 -0.18164,0.57943 -0.22444,1.28362 -0.078,1.28362 0.0496,0 0.41273,-0.1905 0.80693,-0.42333 0.73012,-0.43125 0.91313,-0.49194 1.01015,-0.33496 0.0849,0.13732 -0.10738,0.31469 -0.74428,0.68666 -0.32272,0.18848 -0.69852,0.44363 -0.83511,0.56699 -0.24834,0.22431 -0.24834,0.22431 -0.0665,0.93834 0.21092,0.82825 0.18148,1.38335 -0.0973,1.83444 -0.20487,0.33149 -0.71375,0.62653 -1.08064,0.62653 -0.47971,0 -0.94612,-0.583 -0.94612,-1.18262 0,-0.14119 -0.0235,-0.25672 -0.0522,-0.25672 -0.0287,0 -0.23675,0.13551 -0.46236,0.30112 -0.22562,0.16562 -0.54092,0.32234 -0.70068,0.34826 -0.37853,0.0614 -0.85716,-0.10068 -1.0605,-0.35917 -0.20845,-0.26501 -0.26624,-0.25927 -0.56596,0.0562 -0.59773,0.62918 -1.23282,0.72137 -1.68902,0.2452 -0.13328,-0.13912 -0.27699,-0.25295 -0.31934,-0.25295 -0.0423,0 -0.24571,0.1485 -0.45191,0.33001 -0.69478,0.61157 -1.2669,0.7512 -1.7846,0.43554 -0.33272,-0.20288 -0.49042,-0.70093 -0.41115,-1.2985 0.0299,-0.22564 0.20852,-0.83621 0.39685,-1.35682 0.40184,-1.11075 0.45952,-1.32756 0.35321,-1.32756 -0.0945,0 -0.43664,0.36374 -0.68979,0.73325 -0.10083,0.14717 -0.4724,0.83297 -0.825708,1.524 -0.353311,0.69103 -0.719317,1.32309 -0.813346,1.40458 -0.242712,0.21035 -0.630681,0.1922 -0.752379,-0.0352 -0.155555,-0.29066 -0.04048,-1.0629 0.302009,-2.02668 0.385231,-1.08407 0.449862,-1.38216 0.288192,-1.3292 -0.314385,0.10297 -1.224282,1.60694 -1.983742,3.27893 -0.243574,0.53623 -0.51969,1.02599 -0.613591,1.08834 -0.149674,0.0994 -0.192406,0.0901 -0.346494,-0.0753 -0.175764,-0.18867 -0.175764,-0.18867 -0.609365,0.0473 -0.572892,0.31181 -1.102745,0.27356 -1.440044,-0.10394 -0.123769,-0.13852 -0.244263,-0.30419 -0.267764,-0.36816 -0.02943,-0.0801 -0.184201,0.019 -0.497376,0.3185 -0.536156,0.51275 -0.730759,0.62354 -1.095254,0.62354 -0.199733,0 -0.34403,-0.0777 -0.550214,-0.29634 -0.153713,-0.16298 -0.299761,-0.29633 -0.324551,-0.29633 -0.02479,0 -0.170224,0.10939 -0.323185,0.24309 -0.595691,0.52068 -0.920902,0.68824 -1.33574,0.68824 -0.721028,0 -0.96696,-0.27319 -1.699423,-1.88781 -0.279846,-0.61688 -0.768982,-1.07552 -1.147035,-1.07552 -0.177082,0 -0.232404,0.11405 -0.582097,1.20005 -0.21253,0.66003 -0.443279,1.52612 -0.512774,1.92464 -0.13785,0.79049 -0.285106,1.03835 -0.527133,0.88728 -0.08062,-0.0503 -0.198374,-0.24017 -0.261682,-0.4219 -0.14029,-0.4027 -0.02449,-1.78779 0.242197,-2.89693 0.09308,-0.38713 0.16924,-0.7552 0.16924,-0.81795 0,-0.0628 -0.171594,-0.19715 -0.381321,-0.29868 -0.253159,-0.12255 -0.39886,-0.25447 -0.433502,-0.39249 -0.07733,-0.30809 0.0093,-0.33454 0.523419,-0.15979 0.283786,0.0965 0.495768,0.12775 0.543062,0.0802 0.07573,-0.0762 1.695676,-4.73345 1.695676,-4.87497 0,-0.13344 -0.244979,-0.072 -1.202738,0.30164 -2.260716,0.88197 -3.836489,1.76408 -5.61434,3.14288 -2.03323,1.57686 -3.347365,3.39324 -3.728656,5.15371 -0.34298,1.58359 0.136968,3.12204 1.151687,3.69168 0.321241,0.18034 0.485124,0.21164 1.107259,0.21146 0.676401,-1.6e-4 0.774093,-0.0231 1.325652,-0.31123 0.612349,-0.31986 0.752362,-0.33344 0.605326,-0.0587 -0.226248,0.42275 -1.670802,0.79825 -2.542407,0.66089 z m 31.118422,-5.85525 c 0.16807,-0.23996 0.17053,-0.90991 0.005,-1.30658 -0.11259,-0.26947 -0.14299,-0.29078 -0.26776,-0.18778 -0.23126,0.19091 -0.4731,0.82398 -0.41112,1.07622 0.0776,0.316 0.27972,0.60631 0.42204,0.60631 0.0661,0 0.17955,-0.0847 0.25205,-0.18817 z m -4.44277,-0.722 c 0.43733,-0.52643 0.75105,-1.27098 0.89653,-2.1277 0.15013,-0.88413 0.1173,-1.19547 -0.12605,-1.19547 -0.5913,0 -1.73265,2.67589 -1.45355,3.40784 0.12421,0.32574 0.36713,0.29563 0.68307,-0.0847 z m -16.772523,-1.24483 c 1.146471,-0.30515 2.236902,-1.17073 2.781078,-2.20761 0.379326,-0.72278 0.701343,-1.89407 0.701343,-2.55105 0,-0.47214 -0.029,-0.5737 -0.217678,-0.76238 -0.18881,-0.18881 -0.264082,-0.21026 -0.56759,-0.16173 -0.192452,0.0308 -0.472629,0.1318 -0.622616,0.22449 -0.602682,0.37248 -1.638607,1.6898 -2.52478,3.21061 -0.28291,0.48552 -0.893336,2.04516 -0.893336,2.28248 0,0.12797 0.810918,0.10696 1.343579,-0.0348 z m 4.667755,-2.82721 c 0,-0.41585 0.354832,-0.62547 1.800494,-1.06367 2.310067,-0.70021 8.472534,-1.6923 10.954654,-1.76358 0.64808,-0.0186 0.80092,0.003 0.94307,0.13117 0.20742,0.18754 0.38349,0.8431 0.31283,1.16479 -0.0929,0.42294 -0.17511,0.439 -1.45195,0.28369 -1.58145,-0.19237 -4.49421,-0.19343 -6.082098,-0.002 -2.052798,0.24719 -4.474939,0.79921 -5.802156,1.32235 -0.579063,0.22824 -0.674844,0.21795 -0.674844,-0.0725 z m 2.120042,-2.25273 c -0.312864,-0.37697 0.05621,-0.55156 2.613449,-1.23622 0.857171,-0.2295 1.58038,-0.43916 1.607132,-0.46591 0.09705,-0.097 -0.922843,0.0697 -2.99629,0.48983 -3.44053,0.69717 -3.528587,0.70778 -3.632153,0.43789 -0.11224,-0.29249 0.04024,-0.38943 1.81182,-1.15191 0.535516,-0.23048 1.268236,-0.53293 1.628266,-0.67211 0.360031,-0.13919 0.676604,-0.28867 0.703497,-0.33218 0.07134,-0.11544 -0.410132,-0.0943 -1.231097,0.054 -1.942134,0.35091 -2.879749,0.31911 -3.216579,-0.1091 -0.141527,-0.17992 -0.170087,-0.34331 -0.170087,-0.97305 0,-1.6444 0.754599,-2.96663 2.261686,-3.96299 0.73037,-0.48285 1.726995,-0.85789 2.965473,-1.11593 1.237819,-0.25791 3.988989,-0.28137 4.848179,-0.0413 1.40585,0.39273 2.54525,1.17979 3.24347,2.24049 0.67275,1.022 1.07349,2.31369 0.79064,2.54844 -0.073,0.0606 -0.52471,0.16212 -1.00389,0.2257 -0.80502,0.10682 -3.00885,0.5051 -4.00389,0.72358 -0.72766,0.15978 -2.617112,0.68353 -2.781925,0.77114 -0.367944,0.1956 0.04829,0.22339 1.047938,0.07 1.523777,-0.23387 2.834767,-0.34011 4.201107,-0.34044 1.05125,-2.5e-4 1.22139,0.0194 1.39626,0.16097 0.19037,0.15415 0.19265,0.16844 0.0517,0.32417 -0.31983,0.35341 -0.22138,0.38562 0.98159,0.32119 0.99165,-0.0531 1.14616,-0.0433 1.26983,0.0803 0.19817,0.19817 0.0453,0.44946 -0.30438,0.50023 -0.15078,0.0219 -1.01709,0.0788 -1.92514,0.12638 -1.69635,0.089 -5.659842,0.64881 -8.509001,1.20191 -1.469153,0.28521 -1.51191,0.28845 -1.647625,0.12492 z m 1.243185,-5.71675 c 0.499773,-0.30473 0.431036,-0.84898 -0.107222,-0.84898 -0.26912,0 -0.754089,0.35729 -0.786004,0.57907 -0.06223,0.43242 0.398409,0.57161 0.893226,0.26991 z m -1.267727,-1.0428 c 0.233521,-0.21374 0.242135,-0.36525 0.0273,-0.48023 -0.192728,-0.10314 -0.400114,-0.0426 -0.6623,0.19343 -0.226696,0.20405 -0.233266,0.25643 -0.05458,0.43511 0.160325,0.16033 0.411361,0.10633 0.689579,-0.14831 z m 2.684806,-0.78393 c 0.356868,-0.16934 0.51512,-0.48806 0.33284,-0.67034 -0.391809,-0.39181 -1.31325,0.25418 -0.963567,0.67552 0.132913,0.16015 0.284952,0.1589 0.630727,-0.005 z"
           style="fill:#c92c4d;stroke-width:0.08466667" />
        <path
           inkscape:connector-curvature="0"
           id="path80"
           d="m 78.249938,200.37672 c -0.503693,-0.0794 -0.807479,-0.24315 -1.193859,-0.6436 -0.621339,-0.64398 -0.973512,-1.78648 -0.884218,-2.86856 0.198651,-2.40725 2.019489,-4.78656 5.388294,-7.04092 1.959438,-1.31124 5.213609,-2.95457 6.366079,-3.21483 0.569774,-0.12867 0.598576,-0.12748 0.757425,0.0314 0.163728,0.16373 0.163302,0.17019 -0.05019,0.76204 -0.118425,0.3283 -0.215317,0.64865 -0.215317,0.71189 0,0.0632 0.300393,-0.19567 0.667541,-0.57536 1.038822,-1.0743 1.832757,-1.39382 2.547855,-1.02541 0.507448,0.26144 0.69605,0.6108 0.745472,1.38091 0.05241,0.81662 -0.15521,1.74948 -0.593504,2.66672 -0.266554,0.55783 -0.479167,0.85336 -0.945459,1.31418 -0.670585,0.66272 -1.238842,0.97801 -2.161973,1.19956 -0.329229,0.079 -0.598599,0.17594 -0.598599,0.21539 0,0.0395 0.07532,0.17496 0.167384,0.30113 0.09206,0.12618 0.299444,0.5866 0.460851,1.02316 0.350105,0.94694 0.552214,1.19591 0.970799,1.19591 0.258539,0 0.377167,-0.0794 0.867065,-0.58005 0.418375,-0.4276 0.593827,-0.67795 0.667533,-0.9525 0.268137,-0.9988 0.636233,-2.03619 0.904409,-2.54886 0.240801,-0.46033 0.351186,-0.58563 0.583477,-0.66229 0.663247,-0.21889 0.830305,0.10331 0.473767,0.91374 -0.771794,1.75434 -1.056654,2.62829 -1.015743,3.11629 0.03616,0.43132 0.187031,0.45244 0.533102,0.0746 0.385521,-0.4209 0.809963,-1.2451 1.405466,-2.72921 0.270284,-0.6736 0.5725,-1.31102 0.671588,-1.4165 0.336484,-0.35817 1.014969,-0.33242 1.014969,0.0385 0,0.0871 -0.118222,0.41919 -0.262717,0.73785 -0.400804,0.88393 -0.813374,2.05921 -0.914062,2.60388 -0.145575,0.78749 0.100723,1.01928 0.651382,0.61302 0.467043,-0.34458 0.7511,-0.79042 0.988298,-1.5512 0.344685,-1.10552 0.876953,-2.44164 1.0709,-2.6882 0.138474,-0.17604 0.244578,-0.21844 0.546678,-0.21844 0.20617,0 0.375438,0.0286 0.376151,0.0635 6.77e-4,0.0349 0.03468,0.11622 0.07549,0.18064 0.05986,0.0945 0.132607,0.0726 0.376534,-0.11346 0.166289,-0.12684 0.450099,-0.25043 0.630689,-0.27465 0.28412,-0.0381 0.352971,-0.0127 0.51117,0.18838 0.130419,0.16581 0.182825,0.3505 0.182825,0.64434 0,0.22656 0.0286,0.40986 0.0635,0.40735 0.0349,-0.003 0.22425,-0.23002 0.42073,-0.50558 0.41584,-0.58322 0.96678,-1.01385 1.29709,-1.01385 0.7424,0 0.8267,0.79032 0.25286,2.37066 -0.41106,1.13204 -0.52942,1.66852 -0.4152,1.88194 0.17851,0.33355 0.64589,0.0698 1.26557,-0.71414 0.22398,-0.28336 0.35025,-0.55272 0.41845,-0.89264 0.11991,-0.59765 0.64408,-1.71309 1.03976,-2.21262 0.38195,-0.4822 0.94331,-0.85654 1.28447,-0.85654 0.18698,0 0.34116,0.0766 0.5111,0.254 0.13384,0.1397 0.27121,0.254 0.30527,0.254 0.0341,0 0.14387,-0.13259 0.24402,-0.29465 0.28143,-0.45536 1.0247,-0.60165 1.12418,-0.22126 0.0215,0.0823 -0.16716,0.63964 -0.41931,1.23845 -0.72291,1.71679 -0.94242,2.68498 -0.66157,2.91807 0.28782,0.23887 0.94044,-0.29832 1.69747,-1.39726 0.31821,-0.46193 0.33703,-0.52569 0.38409,-1.30104 0.0806,-1.32818 0.43471,-1.87364 1.21631,-1.87364 0.35229,0 0.35672,0.0255 0.13012,0.74838 -0.18164,0.57943 -0.22444,1.28362 -0.078,1.28362 0.0496,0 0.41273,-0.1905 0.80693,-0.42333 0.73012,-0.43125 0.91313,-0.49194 1.01015,-0.33496 0.0849,0.13732 -0.10738,0.31469 -0.74428,0.68666 -0.32272,0.18848 -0.69852,0.44363 -0.83511,0.56699 -0.24834,0.22431 -0.24834,0.22431 -0.0665,0.93834 0.21092,0.82825 0.18148,1.38335 -0.0973,1.83444 -0.20487,0.33149 -0.71375,0.62653 -1.08064,0.62653 -0.47971,0 -0.94612,-0.583 -0.94612,-1.18262 0,-0.14119 -0.0235,-0.25672 -0.0522,-0.25672 -0.0287,0 -0.23675,0.13551 -0.46236,0.30112 -0.22562,0.16562 -0.54092,0.32234 -0.70068,0.34826 -0.37853,0.0614 -0.85716,-0.10068 -1.0605,-0.35917 -0.20845,-0.26501 -0.26624,-0.25927 -0.56596,0.0562 -0.59773,0.62918 -1.23282,0.72137 -1.68902,0.2452 -0.13328,-0.13912 -0.27699,-0.25295 -0.31934,-0.25295 -0.0423,0 -0.24571,0.1485 -0.45191,0.33001 -0.69478,0.61157 -1.2669,0.7512 -1.7846,0.43554 -0.33272,-0.20288 -0.49042,-0.70093 -0.41115,-1.2985 0.0299,-0.22564 0.20852,-0.83621 0.39685,-1.35682 0.40184,-1.11075 0.45952,-1.32756 0.35321,-1.32756 -0.0945,0 -0.43664,0.36374 -0.68979,0.73325 -0.10083,0.14717 -0.4724,0.83297 -0.825708,1.524 -0.353311,0.69103 -0.719317,1.32309 -0.813346,1.40458 -0.242712,0.21035 -0.630681,0.1922 -0.752379,-0.0352 -0.155555,-0.29066 -0.04048,-1.0629 0.302009,-2.02668 0.385231,-1.08407 0.449862,-1.38216 0.288192,-1.3292 -0.314385,0.10297 -1.224282,1.60694 -1.983742,3.27893 -0.243574,0.53623 -0.51969,1.02599 -0.613591,1.08834 -0.149674,0.0994 -0.192406,0.0901 -0.346494,-0.0753 -0.175764,-0.18867 -0.175764,-0.18867 -0.609365,0.0473 -0.572892,0.31181 -1.102745,0.27356 -1.440044,-0.10394 -0.123769,-0.13852 -0.244263,-0.30419 -0.267764,-0.36816 -0.02943,-0.0801 -0.184201,0.019 -0.497376,0.3185 -0.536156,0.51275 -0.730759,0.62354 -1.095254,0.62354 -0.199733,0 -0.34403,-0.0777 -0.550214,-0.29634 -0.153713,-0.16298 -0.299761,-0.29633 -0.324551,-0.29633 -0.02479,0 -0.170224,0.10939 -0.323185,0.24309 -0.595691,0.52068 -0.920902,0.68824 -1.33574,0.68824 -0.721028,0 -0.96696,-0.27319 -1.699423,-1.88781 -0.279846,-0.61688 -0.768982,-1.07552 -1.147035,-1.07552 -0.177082,0 -0.232404,0.11405 -0.582097,1.20005 -0.21253,0.66003 -0.443279,1.52612 -0.512774,1.92464 -0.13785,0.79049 -0.285106,1.03835 -0.527133,0.88728 -0.08062,-0.0503 -0.198374,-0.24017 -0.261682,-0.4219 -0.14029,-0.4027 -0.02449,-1.78779 0.242197,-2.89693 0.09308,-0.38713 0.16924,-0.7552 0.16924,-0.81795 0,-0.0628 -0.171594,-0.19715 -0.381321,-0.29868 -0.253159,-0.12255 -0.39886,-0.25447 -0.433502,-0.39249 -0.07733,-0.30809 0.0093,-0.33454 0.523419,-0.15979 0.283786,0.0965 0.495768,0.12775 0.543062,0.0802 0.07573,-0.0762 1.695676,-4.73345 1.695676,-4.87497 0,-0.13344 -0.244979,-0.072 -1.202738,0.30164 -2.260716,0.88197 -3.836489,1.76408 -5.61434,3.14288 -2.03323,1.57686 -3.347365,3.39324 -3.728656,5.15371 -0.34298,1.58359 0.136968,3.12204 1.151687,3.69168 0.321241,0.18034 0.485124,0.21164 1.107259,0.21146 0.676401,-1.6e-4 0.774093,-0.0231 1.325652,-0.31123 0.612349,-0.31986 0.752362,-0.33344 0.605326,-0.0587 -0.226248,0.42275 -1.670802,0.79825 -2.542407,0.66089 z m 31.118422,-5.85525 c 0.16807,-0.23996 0.17053,-0.90991 0.005,-1.30658 -0.11259,-0.26947 -0.14299,-0.29078 -0.26776,-0.18778 -0.23126,0.19091 -0.4731,0.82398 -0.41112,1.07622 0.0776,0.316 0.27972,0.60631 0.42204,0.60631 0.0661,0 0.17955,-0.0847 0.25205,-0.18817 z m -4.44277,-0.722 c 0.43733,-0.52643 0.75105,-1.27098 0.89653,-2.1277 0.15013,-0.88413 0.1173,-1.19547 -0.12605,-1.19547 -0.5913,0 -1.73265,2.67589 -1.45355,3.40784 0.12421,0.32574 0.36713,0.29563 0.68307,-0.0847 z m -16.772523,-1.24483 c 1.146471,-0.30515 2.236902,-1.17073 2.781078,-2.20761 0.379326,-0.72278 0.701343,-1.89407 0.701343,-2.55105 0,-0.47214 -0.029,-0.5737 -0.217678,-0.76238 -0.18881,-0.18881 -0.264082,-0.21026 -0.56759,-0.16173 -0.192452,0.0308 -0.472629,0.1318 -0.622616,0.22449 -0.602682,0.37248 -1.638607,1.6898 -2.52478,3.21061 -0.28291,0.48552 -0.893336,2.04516 -0.893336,2.28248 0,0.12797 0.810918,0.10696 1.343579,-0.0348 z m 4.780961,-2.80342 c -0.226796,-0.59102 2.616812,-1.41695 7.422132,-2.15576 1.7857,-0.27455 4.63351,-0.58895 5.34204,-0.58976 0.80142,-9.1e-4 0.93864,0.11426 0.99051,0.83136 0.0453,0.62685 -0.052,0.72227 -0.6264,0.61428 -1.55216,-0.29181 -4.87947,-0.31326 -7.083071,-0.0457 -1.77152,0.21513 -3.896701,0.70251 -5.306246,1.21693 -0.574841,0.2098 -0.699491,0.23149 -0.738965,0.12862 z m 2.096956,-2.31567 c -0.230274,-0.14581 -0.01273,-0.33066 0.641233,-0.54487 0.70324,-0.23035 2.17148,-0.60906 3.498605,-0.90241 0.917878,-0.20288 1.185338,-0.29784 1.185338,-0.42082 0,-0.22907 -1.529213,-0.011 -4.734598,0.67532 -2.069059,0.44299 -2.88244,0.54309 -2.946079,0.36257 -0.02003,-0.0568 0.0902,-0.18034 0.244961,-0.2745 0.309545,-0.18834 2.466412,-1.11846 3.435211,-1.48139 0.485766,-0.18197 0.613834,-0.26592 0.613834,-0.40237 0,-0.15707 -0.03954,-0.16854 -0.4445,-0.12886 -0.244475,0.024 -0.920751,0.127 -1.502834,0.229 -0.696117,0.12198 -1.299906,0.17586 -1.764165,0.15743 -0.651871,-0.0259 -0.721454,-0.0462 -0.910167,-0.26557 -0.17528,-0.20377 -0.204335,-0.32465 -0.204335,-0.85004 0,-1.68565 0.922363,-3.21492 2.471095,-4.09706 1.270999,-0.72395 2.896922,-1.10319 5.064239,-1.18121 1.025738,-0.0369 1.363738,-0.0159 2.054938,0.12761 2.28756,0.47505 3.80922,1.91769 4.38208,4.15448 0.0756,0.29511 0.072,0.3947 -0.0173,0.48403 -0.0619,0.0619 -0.53147,0.17075 -1.04359,0.24197 -1.76882,0.246 -3.80082,0.65595 -5.503108,1.11025 -1.418911,0.37867 -1.566333,0.43986 -1.566333,0.65018 0,0.15891 0.03864,0.16705 0.5715,0.12039 0.314325,-0.0275 0.93345,-0.10878 1.375833,-0.18059 1.859478,-0.30181 4.770928,-0.38906 5.009848,-0.15013 0.0793,0.0793 0.0588,0.14747 -0.0922,0.30829 -0.33426,0.3558 -0.18531,0.40496 1.14045,0.37638 0.66733,-0.0144 1.23932,-1.7e-4 1.27109,0.0316 0.0318,0.0318 0.0365,0.11308 0.0106,0.18067 -0.0506,0.13191 -0.19829,0.14864 -2.68309,0.30402 -1.55139,0.097 -5.77163,0.72631 -8.578725,1.27923 -0.968485,0.19076 -0.833739,0.17888 -0.979781,0.0864 z m 1.179276,-5.55435 c 0.136599,-0.0706 0.308637,-0.24499 0.382306,-0.38745 0.122205,-0.23632 0.12216,-0.277 -5.08e-4,-0.46423 -0.263075,-0.40151 -1.207865,-0.16171 -1.404918,0.35658 -0.196136,0.51588 0.41297,0.81063 1.023131,0.4951 z m -1.279268,-1.02209 c 0.306958,-0.25829 0.343989,-0.57683 0.08328,-0.71636 -0.222738,-0.11921 -0.569969,-0.0366 -0.817614,0.19459 -0.223257,0.20839 -0.243438,0.42193 -0.05745,0.60792 0.195333,0.19533 0.49617,0.1626 0.791789,-0.0862 z m 2.801965,-0.85348 c 0.343436,-0.20287 0.474472,-0.48019 0.352934,-0.74694 -0.199156,-0.43709 -1.1578,-0.15619 -1.331175,0.39007 -0.131938,0.4157 0.492823,0.64362 0.978241,0.35687 z"
           style="fill:#5e5e5e;stroke-width:0.08466667" />
        <path
           inkscape:connector-curvature="0"
           id="path78"
           d="m 78.41161,200.2398 c 0.0611,-0.0245 0.13414,-0.0215 0.16228,0.007 0.0281,0.0281 -0.0219,0.0482 -0.11113,0.0445 -0.0986,-0.004 -0.11869,-0.0241 -0.0511,-0.0512 z m 0.67733,0 c 0.0611,-0.0245 0.13415,-0.0215 0.16228,0.007 0.0281,0.0281 -0.0219,0.0482 -0.11113,0.0445 -0.0986,-0.004 -0.11869,-0.0241 -0.0512,-0.0512 z m 1.2194,-0.40783 c 0.33116,-0.22503 0.40514,-0.25156 0.40514,-0.14525 0,0.0862 -0.45831,0.35692 -0.60421,0.35692 -0.0618,0 0.0277,-0.0953 0.19907,-0.21167 z m -3.97042,-2.667 c 0,-0.30268 0.0154,-0.42651 0.0341,-0.27517 0.0188,0.15135 0.0188,0.399 0,0.55034 -0.0188,0.15134 -0.0341,0.0275 -0.0341,-0.27517 z m 8.67859,0.024 c -0.20453,-0.24698 -0.13401,-1.94691 0.12742,-3.07142 0.12442,-0.5352 0.22622,-1.00014 0.22622,-1.0332 0,-0.0331 -0.16192,-0.1319 -0.35983,-0.21965 -0.37669,-0.167 -0.63468,-0.4061 -0.54017,-0.50061 0.0305,-0.0305 0.18962,0.009 0.3536,0.0867 0.39265,0.18724 0.68924,0.18054 0.79548,-0.018 0.0471,-0.0881 0.44902,-1.23805 0.89307,-2.5555 0.578,-1.71487 0.77896,-2.4129 0.7074,-2.45713 -0.20113,-0.12431 -2.26773,0.70062 -3.94505,1.57476 -0.57044,0.29729 -1.03717,0.5283 -1.03717,0.51337 0,-0.072 1.70863,-1.03329 2.83848,-1.59699 2.27513,-1.1351 3.27273,-1.47174 3.5474,-1.19707 0.11301,0.11301 0.0993,0.20246 -0.12373,0.80734 -0.41592,1.12804 -0.35084,1.15963 0.50163,0.24347 0.87576,-0.94119 1.42,-1.28469 2.05053,-1.2942 0.44981,-0.007 0.72963,0.14518 1.04413,0.56704 0.15228,0.20427 0.17351,0.34951 0.1663,1.13777 -0.0105,1.1517 -0.27073,2.00733 -0.89367,2.9387 -0.67825,1.01407 -1.50057,1.57471 -2.7464,1.87244 -0.32175,0.0769 -0.61308,0.16401 -0.6474,0.1936 -0.0343,0.0296 0.0258,0.18575 0.13369,0.34701 0.10785,0.16126 0.33984,0.66706 0.51553,1.12401 0.17569,0.45695 0.40478,0.93002 0.50908,1.05128 0.3841,0.44654 1.02013,0.20301 1.74518,-0.66823 0.22942,-0.27568 0.43907,-0.60442 0.46589,-0.73055 0.19708,-0.92685 0.7704,-2.49741 1.06099,-2.90648 0.19352,-0.27243 0.64813,-0.38636 0.82719,-0.2073 0.10851,0.10851 0.0969,0.18411 -0.0946,0.61509 -1.03846,2.33688 -1.34872,3.75104 -0.82298,3.75104 0.39964,0 1.35772,-1.57241 1.90873,-3.13266 0.35037,-0.99211 0.60995,-1.41978 0.92486,-1.52371 0.32443,-0.10707 0.55121,-0.0381 0.55121,0.16753 0,0.0823 -0.13188,0.4391 -0.29307,0.7928 -0.37858,0.83075 -0.76131,1.9194 -0.88527,2.5181 -0.13209,0.63799 -0.028,0.92394 0.33635,0.92394 0.2074,0 0.36513,-0.10274 0.7474,-0.48683 0.46126,-0.46345 0.50167,-0.53969 0.84151,-1.5875 0.40629,-1.25272 0.88995,-2.40959 1.0498,-2.51102 0.0596,-0.0378 0.23211,-0.0693 0.38345,-0.07 0.24958,-0.001 0.27517,0.0223 0.27517,0.25271 0,0.32595 0.0747,0.31965 0.50868,-0.0429 0.3932,-0.32852 0.65753,-0.42479 0.92939,-0.3385 0.26343,0.0836 0.35798,0.42331 0.29125,1.04641 -0.0692,0.64643 -0.0122,0.63948 0.46296,-0.0564 0.81483,-1.19347 1.65369,-1.62011 1.94187,-0.98763 0.15988,0.35089 0.11879,0.61065 -0.28763,1.81838 -0.21155,0.62865 -0.42325,1.32155 -0.47044,1.53978 -0.15532,0.71828 0.1955,0.96032 0.77366,0.53377 0.387,-0.28552 1.00858,-1.04949 1.06711,-1.31155 0.41288,-1.84883 1.43384,-3.302 2.3199,-3.302 0.11179,0 0.31702,0.14172 0.50834,0.35102 0.32087,0.35102 0.32087,0.35102 0.49204,0.0155 0.2445,-0.47927 0.43047,-0.58896 0.92437,-0.54522 0.18255,0.0162 0.11652,0.38812 -0.18723,1.05466 -0.74275,1.62986 -1.05396,2.92958 -0.76957,3.21398 0.0789,0.0789 0.2197,0.14339 0.31297,0.14339 0.23581,0 1.06292,-0.81176 1.55647,-1.52759 0.40152,-0.58234 0.41256,-0.61497 0.42251,-1.24968 0.0189,-1.20632 0.37985,-1.87939 1.00784,-1.87939 0.16656,0 0.30235,0.0286 0.30175,0.0635 -5.9e-4,0.0349 -0.0768,0.30502 -0.16933,0.60021 -0.17758,0.56649 -0.2241,1.32377 -0.0865,1.40879 0.0449,0.0278 0.43302,-0.1613 0.8624,-0.42015 0.42938,-0.25885 0.81457,-0.45935 0.85598,-0.44555 0.1884,0.0628 0.033,0.2192 -0.58411,0.58775 -0.3661,0.21865 -0.7794,0.49084 -0.91843,0.60485 -0.25264,0.20716 -0.25273,0.20756 -0.13771,0.61845 0.35787,1.27842 0.30159,1.94715 -0.20099,2.38843 -0.73993,0.64966 -1.56751,0.23377 -1.56751,-0.78774 0,-0.47547 -0.10872,-0.4932 -0.5849,-0.0954 -0.51815,0.4329 -0.86525,0.52336 -1.32883,0.34631 -0.24614,-0.094 -0.41984,-0.22856 -0.50325,-0.38985 -0.0701,-0.13547 -0.15152,-0.24631 -0.18104,-0.24631 -0.0295,0 -0.27336,0.20955 -0.54187,0.46567 -0.43264,0.41266 -0.52858,0.46566 -0.84294,0.46566 -0.30688,0 -0.39726,-0.0465 -0.66999,-0.34488 -0.31525,-0.34489 -0.31525,-0.34489 -0.77338,0.0725 -0.78067,0.7112 -1.16443,0.83232 -1.66674,0.52606 -0.565,-0.34448 -0.59325,-1.05018 -0.0983,-2.45498 0.53031,-1.5051 0.53474,-1.52004 0.4696,-1.58517 -0.12554,-0.12555 -0.51846,0.20582 -0.8761,0.73887 -0.20295,0.30248 -0.6195,1.04527 -0.92566,1.65063 -0.58844,1.16352 -0.81355,1.48167 -1.04835,1.48167 -0.48197,0 -0.46813,-0.73948 0.042,-2.24325 0.48257,-1.42257 0.48716,-1.54828 0.0479,-1.31321 -0.35368,0.18928 -1.65374,2.46116 -2.26529,3.95863 -0.18981,0.46478 -0.42233,0.59147 -0.50505,0.27516 -0.0589,-0.22525 -0.21548,-0.21346 -0.60714,0.0457 -0.67849,0.449 -1.29736,0.33021 -1.62494,-0.31191 -0.17721,-0.34737 -0.17721,-0.34737 -0.69933,0.2083 -0.72579,0.77242 -1.24379,0.85917 -1.59329,0.26682 -0.0953,-0.16148 -0.21104,-0.2936 -0.25725,-0.2936 -0.0462,0 -0.33622,0.20933 -0.64445,0.46517 -1.12504,0.93383 -1.84952,0.67187 -2.482,-0.89742 -0.46392,-1.15106 -1.33441,-1.88251 -1.70123,-1.4295 -0.2453,0.30293 -0.90101,2.50737 -1.03634,3.48408 -0.0589,0.4251 -0.22049,0.56601 -0.4002,0.34899 z m 24.51931,-2.77024 c 0.1444,-0.29584 0.15214,-0.3947 0.0689,-0.88056 -0.0516,-0.30102 -0.15622,-0.60826 -0.23258,-0.68275 -0.12764,-0.12453 -0.15803,-0.1127 -0.37743,0.14693 -0.2794,0.33066 -0.46826,0.92765 -0.38328,1.2116 0.20378,0.68086 0.64435,0.77846 0.92437,0.20478 z m -4.48481,-0.64698 c 0.40344,-0.44656 0.68123,-1.04995 0.84769,-1.84126 0.2547,-1.2108 0.14264,-1.74131 -0.323,-1.52915 -0.27814,0.12673 -0.55093,0.52575 -0.97738,1.42964 -0.53487,1.13368 -0.64361,1.9778 -0.29916,2.32225 0.16887,0.16886 0.32726,0.0885 0.75185,-0.38148 z m -16.99163,-1.10661 c 1.05034,-0.19944 2.13723,-0.9825 2.8113,-2.02543 0.62216,-0.9626 1.06984,-2.75533 0.85251,-3.41385 -0.11626,-0.35227 -0.29781,-0.47566 -0.69597,-0.47302 -0.86309,0.006 -1.95164,1.0879 -3.19664,3.17792 -0.44849,0.7529 -1.10576,2.35422 -1.10576,2.69398 0,0.22161 0.32794,0.23154 1.33456,0.0404 z m -11.65053,3.56851 c 0,-0.11642 0.0192,-0.16404 0.0427,-0.10584 0.0235,0.0582 0.0235,0.15346 0,0.21167 -0.0235,0.0582 -0.0427,0.0106 -0.0427,-0.10583 z m 0.078,-0.38806 c 0.004,-0.0986 0.0241,-0.11869 0.0511,-0.0512 0.0245,0.0611 0.0215,0.13414 -0.007,0.16228 -0.0281,0.0281 -0.0481,-0.0219 -0.0445,-0.11113 z m 16.44719,-6.09436 c -0.2268,-0.59102 2.61681,-1.41695 7.42214,-2.15576 1.7857,-0.27455 4.63351,-0.58895 5.34204,-0.58976 0.80142,-9.1e-4 0.93864,0.11426 0.99051,0.83136 0.0453,0.62685 -0.052,0.72227 -0.6264,0.61428 -1.55216,-0.29181 -4.87947,-0.31326 -7.08308,-0.0457 -1.77152,0.21513 -3.8967,0.70251 -5.30624,1.21693 -0.57485,0.2098 -0.6995,0.23149 -0.73897,0.12862 z m 2.09696,-2.31567 c -0.23028,-0.14581 -0.0127,-0.33066 0.64123,-0.54487 0.70324,-0.23035 2.17148,-0.60906 3.4986,-0.90241 0.91789,-0.20288 1.18535,-0.29784 1.18535,-0.42082 0,-0.22907 -1.52922,-0.011 -4.73461,0.67532 -2.06905,0.44299 -2.88244,0.54309 -2.94607,0.36257 -0.02,-0.0568 0.0902,-0.18034 0.24496,-0.2745 0.30954,-0.18834 2.46641,-1.11846 3.43521,-1.48139 0.48576,-0.18197 0.61383,-0.26592 0.61383,-0.40237 0,-0.15707 -0.0395,-0.16854 -0.4445,-0.12886 -0.24447,0.024 -0.92075,0.127 -1.50283,0.229 -0.69612,0.12198 -1.29991,0.17586 -1.76417,0.15743 -0.65187,-0.0259 -0.72145,-0.0462 -0.91016,-0.26557 -0.17528,-0.20377 -0.20434,-0.32465 -0.20434,-0.85004 0,-1.68565 0.92236,-3.21492 2.4711,-4.09706 1.27099,-0.72395 2.89692,-1.10319 5.06423,-1.18121 1.02575,-0.0369 1.36375,-0.0159 2.05495,0.12761 2.28756,0.47505 3.80922,1.91769 4.38208,4.15448 0.0756,0.29511 0.072,0.3947 -0.0173,0.48403 -0.0619,0.0619 -0.53147,0.17075 -1.04359,0.24197 -1.76882,0.246 -3.80082,0.65595 -5.50312,1.11025 -1.41891,0.37867 -1.56633,0.43986 -1.56633,0.65018 0,0.15891 0.0386,0.16705 0.5715,0.12039 0.31433,-0.0275 0.93345,-0.10878 1.37583,-0.18059 1.85949,-0.30181 4.77094,-0.38906 5.00986,-0.15013 0.0793,0.0793 0.0588,0.14747 -0.0922,0.30829 -0.33426,0.3558 -0.18531,0.40496 1.14045,0.37638 0.66733,-0.0144 1.23932,-1.7e-4 1.27109,0.0316 0.0318,0.0318 0.0365,0.11308 0.0106,0.18067 -0.0506,0.13191 -0.19829,0.14864 -2.68309,0.30402 -1.55139,0.097 -5.77164,0.72631 -8.57873,1.27923 -0.96849,0.19076 -0.83374,0.17888 -0.97978,0.0864 z m 1.17927,-5.55435 c 0.1366,-0.0706 0.30864,-0.24499 0.38231,-0.38745 0.1222,-0.23632 0.12216,-0.277 -5.1e-4,-0.46423 -0.26307,-0.40151 -1.20786,-0.16171 -1.40492,0.35658 -0.19613,0.51588 0.41297,0.81063 1.02313,0.4951 z M 94.931,180.85912 c 0.30696,-0.25829 0.34399,-0.57683 0.0833,-0.71636 -0.22273,-0.11921 -0.56996,-0.0366 -0.81761,0.19459 -0.22326,0.20839 -0.24344,0.42193 -0.0574,0.60792 0.19533,0.19533 0.49617,0.1626 0.79179,-0.0862 z m 2.80197,-0.85348 c 0.34344,-0.20287 0.47447,-0.48019 0.35293,-0.74694 -0.19915,-0.43709 -1.1578,-0.15619 -1.33117,0.39007 -0.13194,0.4157 0.49282,0.64362 0.97824,0.35687 z"
           style="fill:#ca0127;stroke-width:0.08466667" />
        <path
           inkscape:connector-curvature="0"
           id="path76"
           d="m 78.411613,200.2398 c 0.06112,-0.0245 0.134144,-0.0215 0.162278,0.007 0.02813,0.0281 -0.02187,0.0482 -0.111125,0.0445 -0.09863,-0.004 -0.118695,-0.0241 -0.05115,-0.0512 z m 0.677333,0 c 0.06112,-0.0245 0.134144,-0.0215 0.162278,0.007 0.02813,0.0281 -0.02187,0.0482 -0.111125,0.0445 -0.09863,-0.004 -0.118694,-0.0241 -0.05115,-0.0512 z m 1.219396,-0.40783 c 0.331167,-0.22503 0.405146,-0.25156 0.405146,-0.14525 0,0.0862 -0.458314,0.35692 -0.604218,0.35692 -0.06183,0 0.02775,-0.0953 0.199072,-0.21167 z m -3.970421,-2.667 c 0,-0.30268 0.01537,-0.42651 0.03415,-0.27517 0.01878,0.15135 0.01878,0.399 0,0.55034 -0.01878,0.15134 -0.03415,0.0275 -0.03415,-0.27517 z m 8.67859,0.024 c -0.204526,-0.24698 -0.134004,-1.94691 0.12742,-3.07142 0.124423,-0.5352 0.226224,-1.00014 0.226224,-1.0332 0,-0.0331 -0.161925,-0.1319 -0.359834,-0.21965 -0.376683,-0.167 -0.634674,-0.4061 -0.540168,-0.50061 0.0305,-0.0305 0.189626,0.009 0.353604,0.0867 0.392652,0.18724 0.689238,0.18054 0.795477,-0.018 0.04714,-0.0881 0.449017,-1.23805 0.893067,-2.5555 0.578003,-1.71487 0.778967,-2.4129 0.707407,-2.45713 -0.201136,-0.12431 -2.267731,0.70062 -3.945053,1.57476 -0.570442,0.29729 -1.037167,0.5283 -1.037167,0.51337 0,-0.072 1.708631,-1.03329 2.838474,-1.59699 2.275136,-1.1351 3.272732,-1.47174 3.547399,-1.19707 0.113009,0.11301 0.0993,0.20246 -0.123725,0.80734 -0.415923,1.12804 -0.350846,1.15963 0.501628,0.24347 0.875761,-0.94119 1.419998,-1.28469 2.050534,-1.2942 0.449804,-0.007 0.729625,0.14518 1.044125,0.56704 0.152282,0.20427 0.17351,0.34951 0.166302,1.13777 -0.01053,1.1517 -0.270734,2.00733 -0.893672,2.9387 -0.678248,1.01407 -1.500568,1.57471 -2.746398,1.87244 -0.32175,0.0769 -0.61308,0.16401 -0.647399,0.1936 -0.03432,0.0296 0.02584,0.18575 0.133691,0.34701 0.10785,0.16126 0.339838,0.66706 0.51553,1.12401 0.175692,0.45695 0.404776,0.93002 0.509076,1.05128 0.384101,0.44654 1.020129,0.20301 1.745183,-0.66823 0.229419,-0.27568 0.439068,-0.60442 0.465886,-0.73055 0.197083,-0.92685 0.770404,-2.49741 1.060988,-2.90648 0.193521,-0.27243 0.648135,-0.38636 0.827195,-0.2073 0.108513,0.10851 0.09688,0.18411 -0.09464,0.61509 -1.038456,2.33688 -1.348725,3.75104 -0.822983,3.75104 0.399647,0 1.357718,-1.57241 1.908728,-3.13266 0.35037,-0.99211 0.609958,-1.41978 0.924867,-1.52371 0.324423,-0.10707 0.551209,-0.0381 0.551209,0.16753 0,0.0823 -0.131881,0.4391 -0.293067,0.7928 -0.378586,0.83075 -0.761316,1.9194 -0.885274,2.5181 -0.132093,0.63799 -0.02799,0.92394 0.336353,0.92394 0.207392,0 0.365124,-0.10274 0.747396,-0.48683 0.461258,-0.46345 0.501672,-0.53969 0.841508,-1.5875 0.406295,-1.25272 0.889956,-2.40959 1.049798,-2.51102 0.05956,-0.0378 0.232112,-0.0693 0.383453,-0.07 0.249585,-0.001 0.275167,0.0223 0.275167,0.25271 0,0.32595 0.07474,0.31965 0.50868,-0.0429 0.393203,-0.32852 0.657531,-0.42479 0.929393,-0.3385 0.263431,0.0836 0.357983,0.42331 0.291255,1.04641 -0.06923,0.64643 -0.01217,0.63948 0.462952,-0.0564 0.81483,-1.19347 1.65369,-1.62011 1.94187,-0.98763 0.15988,0.35089 0.11879,0.61065 -0.28763,1.81838 -0.21155,0.62865 -0.42325,1.32155 -0.47044,1.53978 -0.15532,0.71828 0.1955,0.96032 0.77366,0.53377 0.387,-0.28552 1.00858,-1.04949 1.06711,-1.31155 0.41288,-1.84883 1.43384,-3.302 2.3199,-3.302 0.11179,0 0.31702,0.14172 0.50834,0.35102 0.32087,0.35102 0.32087,0.35102 0.49204,0.0155 0.2445,-0.47927 0.43047,-0.58896 0.92437,-0.54522 0.18255,0.0162 0.11652,0.38812 -0.18723,1.05466 -0.74275,1.62986 -1.05396,2.92958 -0.76957,3.21398 0.0789,0.0789 0.2197,0.14339 0.31297,0.14339 0.23581,0 1.06292,-0.81176 1.55647,-1.52759 0.40152,-0.58234 0.41256,-0.61497 0.42251,-1.24968 0.0189,-1.20632 0.37985,-1.87939 1.00784,-1.87939 0.16656,0 0.30235,0.0286 0.30175,0.0635 -5.9e-4,0.0349 -0.0768,0.30502 -0.16933,0.60021 -0.17758,0.56649 -0.2241,1.32377 -0.0865,1.40879 0.0449,0.0278 0.43302,-0.1613 0.8624,-0.42015 0.42938,-0.25885 0.81457,-0.45935 0.85598,-0.44555 0.1884,0.0628 0.033,0.2192 -0.58411,0.58775 -0.3661,0.21865 -0.7794,0.49084 -0.91843,0.60485 -0.25264,0.20716 -0.25273,0.20756 -0.13771,0.61845 0.35787,1.27842 0.30159,1.94715 -0.20099,2.38843 -0.73993,0.64966 -1.56751,0.23377 -1.56751,-0.78774 0,-0.47547 -0.10872,-0.4932 -0.5849,-0.0954 -0.51815,0.4329 -0.86525,0.52336 -1.32883,0.34631 -0.24614,-0.094 -0.41984,-0.22856 -0.50325,-0.38985 -0.0701,-0.13547 -0.15152,-0.24631 -0.18104,-0.24631 -0.0295,0 -0.27336,0.20955 -0.54187,0.46567 -0.43264,0.41266 -0.52858,0.46566 -0.84294,0.46566 -0.30688,0 -0.39726,-0.0465 -0.66999,-0.34488 -0.31525,-0.34489 -0.31525,-0.34489 -0.77338,0.0725 -0.78067,0.7112 -1.16443,0.83232 -1.66674,0.52606 -0.565,-0.34448 -0.59325,-1.05018 -0.0983,-2.45498 0.53031,-1.5051 0.53474,-1.52004 0.4696,-1.58517 -0.12554,-0.12555 -0.51846,0.20582 -0.8761,0.73887 -0.20295,0.30248 -0.6195,1.04527 -0.925657,1.65063 -0.58844,1.16352 -0.813545,1.48167 -1.048348,1.48167 -0.481973,0 -0.468131,-0.73948 0.04199,-2.24325 0.482572,-1.42257 0.487161,-1.54828 0.04794,-1.31321 -0.353682,0.18928 -1.653744,2.46116 -2.265292,3.95863 -0.189813,0.46478 -0.422332,0.59147 -0.505047,0.27516 -0.05891,-0.22525 -0.215477,-0.21346 -0.607146,0.0457 -0.678484,0.449 -1.297351,0.33021 -1.624937,-0.31191 -0.177213,-0.34737 -0.177213,-0.34737 -0.699331,0.2083 -0.725784,0.77242 -1.243787,0.85917 -1.593283,0.26682 -0.09527,-0.16148 -0.211041,-0.2936 -0.257257,-0.2936 -0.04622,0 -0.336218,0.20933 -0.644449,0.46517 -1.125036,0.93383 -1.849523,0.67187 -2.482002,-0.89742 -0.463919,-1.15106 -1.334407,-1.88251 -1.701231,-1.4295 -0.245295,0.30293 -0.901004,2.50737 -1.036337,3.48408 -0.0589,0.4251 -0.220489,0.56601 -0.400203,0.34899 z m 24.519309,-2.77024 c 0.1444,-0.29584 0.15214,-0.3947 0.0689,-0.88056 -0.0516,-0.30102 -0.15622,-0.60826 -0.23258,-0.68275 -0.12764,-0.12453 -0.15803,-0.1127 -0.37743,0.14693 -0.2794,0.33066 -0.46826,0.92765 -0.38328,1.2116 0.20378,0.68086 0.64435,0.77846 0.92437,0.20478 z m -4.48481,-0.64698 c 0.40344,-0.44656 0.68123,-1.04995 0.84769,-1.84126 0.2547,-1.2108 0.14264,-1.74131 -0.323,-1.52915 -0.27814,0.12673 -0.55093,0.52575 -0.97738,1.42964 -0.53487,1.13368 -0.64361,1.9778 -0.29916,2.32225 0.16887,0.16886 0.32726,0.0885 0.75185,-0.38148 z m -16.991623,-1.10661 c 1.050334,-0.19944 2.137226,-0.9825 2.811298,-2.02543 0.622162,-0.9626 1.069843,-2.75533 0.85251,-3.41385 -0.116258,-0.35227 -0.297808,-0.47566 -0.695974,-0.47302 -0.863086,0.006 -1.95164,1.0879 -3.196635,3.17792 -0.44849,0.7529 -1.105764,2.35422 -1.105764,2.69398 0,0.22161 0.327947,0.23154 1.334565,0.0404 z m -11.650531,3.56851 c 0,-0.11642 0.01922,-0.16404 0.0427,-0.10584 0.02349,0.0582 0.02349,0.15346 0,0.21167 -0.02349,0.0582 -0.0427,0.0106 -0.0427,-0.10583 z m 0.07798,-0.38806 c 0.0041,-0.0986 0.02412,-0.11869 0.05115,-0.0512 0.02446,0.0611 0.02145,0.13414 -0.0067,0.16228 -0.02813,0.0281 -0.04815,-0.0219 -0.04447,-0.11113 z"
           style="fill:#0f0f0f;stroke-width:0.08466667" />
      </g>
      <circle
         r="22.766417"
         cy="24.423063"
         cx="24.053419"
         id="path95"
         style="fill:none;fill-opacity:1;stroke:#ca0127;stroke-width:0.75290513;stroke-miterlimit:4;stroke-dasharray:none;stroke-opacity:1" />
    </g>
  </g>
</svg>
